<mxfile host="app.diagrams.net" modified="2024-06-16T00:48:10.839Z" agent="Mozilla/5.0 (Windows NT 10.0; Win64; x64) AppleWebKit/537.36 (KHTML, like Gecko) Chrome/125.0.0.0 Safari/537.36" etag="1sN4Wx7mtvFSf2RVVIfK" version="24.5.4" type="github">
  <diagram name="Page-1" id="_XkgfNCZVtlOwNXHPmcd">
    <mxGraphModel dx="1050" dy="522" grid="1" gridSize="10" guides="1" tooltips="1" connect="1" arrows="1" fold="1" page="1" pageScale="1" pageWidth="827" pageHeight="1169" math="0" shadow="0">
      <root>
        <mxCell id="0" />
        <mxCell id="1" parent="0" />
        <mxCell id="xl4IPfDEyV_29pmJxVkD-14" value="" style="rounded=0;whiteSpace=wrap;html=1;fillColor=none;strokeWidth=5;" vertex="1" parent="1">
          <mxGeometry x="270" y="110" width="340" height="480" as="geometry" />
        </mxCell>
        <mxCell id="xl4IPfDEyV_29pmJxVkD-4" value="Form Input" style="rounded=0;whiteSpace=wrap;html=1;" vertex="1" parent="1">
          <mxGeometry x="390" y="140" width="100" height="50" as="geometry" />
        </mxCell>
        <mxCell id="xl4IPfDEyV_29pmJxVkD-5" value="Validation" style="rounded=0;whiteSpace=wrap;html=1;" vertex="1" parent="1">
          <mxGeometry x="390" y="216" width="100" height="50" as="geometry" />
        </mxCell>
        <mxCell id="xl4IPfDEyV_29pmJxVkD-6" value="Password Hashing" style="rounded=0;whiteSpace=wrap;html=1;" vertex="1" parent="1">
          <mxGeometry x="390" y="292" width="100" height="50" as="geometry" />
        </mxCell>
        <mxCell id="xl4IPfDEyV_29pmJxVkD-7" value="Database" style="rounded=0;whiteSpace=wrap;html=1;" vertex="1" parent="1">
          <mxGeometry x="390" y="368" width="100" height="50" as="geometry" />
        </mxCell>
        <mxCell id="xl4IPfDEyV_29pmJxVkD-16" style="edgeStyle=orthogonalEdgeStyle;rounded=0;orthogonalLoop=1;jettySize=auto;html=1;entryX=0;entryY=0.5;entryDx=0;entryDy=0;curved=1;" edge="1" parent="1" source="xl4IPfDEyV_29pmJxVkD-8" target="xl4IPfDEyV_29pmJxVkD-4">
          <mxGeometry relative="1" as="geometry" />
        </mxCell>
        <mxCell id="xl4IPfDEyV_29pmJxVkD-17" style="edgeStyle=orthogonalEdgeStyle;rounded=0;orthogonalLoop=1;jettySize=auto;html=1;entryX=0;entryY=0.5;entryDx=0;entryDy=0;curved=1;" edge="1" parent="1" source="xl4IPfDEyV_29pmJxVkD-8" target="xl4IPfDEyV_29pmJxVkD-5">
          <mxGeometry relative="1" as="geometry" />
        </mxCell>
        <mxCell id="xl4IPfDEyV_29pmJxVkD-18" style="edgeStyle=orthogonalEdgeStyle;rounded=0;orthogonalLoop=1;jettySize=auto;html=1;entryX=0;entryY=0.25;entryDx=0;entryDy=0;curved=1;" edge="1" parent="1" source="xl4IPfDEyV_29pmJxVkD-8" target="xl4IPfDEyV_29pmJxVkD-6">
          <mxGeometry relative="1" as="geometry" />
        </mxCell>
        <mxCell id="xl4IPfDEyV_29pmJxVkD-8" value="User Registration" style="rounded=0;whiteSpace=wrap;html=1;strokeWidth=10;fillColor=#dae8fc;strokeColor=#6c8ebf;" vertex="1" parent="1">
          <mxGeometry x="90" y="130" width="120" height="60" as="geometry" />
        </mxCell>
        <mxCell id="xl4IPfDEyV_29pmJxVkD-10" value="Credential Verification" style="rounded=0;whiteSpace=wrap;html=1;" vertex="1" parent="1">
          <mxGeometry x="390" y="444" width="100" height="50" as="geometry" />
        </mxCell>
        <mxCell id="xl4IPfDEyV_29pmJxVkD-11" value="Token Generation" style="rounded=0;whiteSpace=wrap;html=1;" vertex="1" parent="1">
          <mxGeometry x="390" y="520" width="100" height="50" as="geometry" />
        </mxCell>
        <mxCell id="xl4IPfDEyV_29pmJxVkD-12" value="User Authentication" style="rounded=0;whiteSpace=wrap;html=1;strokeWidth=10;fillColor=#dae8fc;strokeColor=#6c8ebf;" vertex="1" parent="1">
          <mxGeometry x="90" y="220" width="120" height="60" as="geometry" />
        </mxCell>
        <mxCell id="xl4IPfDEyV_29pmJxVkD-13" value="Credential Reset" style="rounded=0;whiteSpace=wrap;html=1;strokeWidth=10;fillColor=#dae8fc;strokeColor=#6c8ebf;" vertex="1" parent="1">
          <mxGeometry x="90" y="310" width="120" height="60" as="geometry" />
        </mxCell>
        <mxCell id="xl4IPfDEyV_29pmJxVkD-15" value="&lt;font style=&quot;font-size: 16px;&quot;&gt;CrossAuth&lt;/font&gt;" style="text;html=1;align=center;verticalAlign=middle;whiteSpace=wrap;rounded=0;" vertex="1" parent="1">
          <mxGeometry x="280" y="80" width="60" height="30" as="geometry" />
        </mxCell>
      </root>
    </mxGraphModel>
  </diagram>
</mxfile>
